name rise30.9205peak61.366fall85.3838.mot
datacolumns 19
datarows 12
range 3.26665700000000 3.28498600000000
endheader
time	ground_force1_vx	ground_force1_vy	ground_force1_vz	ground_force1_px	ground_force1_py	ground_force1_pz	ground_force2_vx	ground_force2_vy	ground_force2_vz	ground_force2_px	ground_force2_py	ground_force2_pz	ground_torque1_x	ground_torque1_y	ground_torque1_z	ground_torque2_x	ground_torque2_y	ground_torque2_z	
3.26665700000000	59.54741600000000	797.00891899999999	58.62799100000000	0.33954500000000	0.00000000000000	0.11735800000000	0.00000000000000	0.00000000000000	0.00000000000000	0.00000000000000	0.00000000000000	0.00000000000000	0.00000000000000	24.57569500000000	0.00000000000000	0.00000000000000	0.00000000000000	0.00000000000000	
3.26832700000000	58.91027100000000	798.66972199999998	58.73064900000000	0.33869300000000	0.00000000000000	0.11733500000000	0.00000000000000	0.00000000000000	0.00000000000000	0.00000000000000	0.00000000000000	0.00000000000000	0.00000000000000	24.67732300000000	0.00000000000000	0.00000000000000	0.00000000000000	0.00000000000000	
3.26998700000000	58.27292300000000	800.17543799999999	58.82083000000000	0.33785200000000	0.00000000000000	0.11731100000000	0.00000000000000	0.00000000000000	0.00000000000000	0.00000000000000	0.00000000000000	0.00000000000000	0.00000000000000	24.77217800000000	0.00000000000000	0.00000000000000	0.00000000000000	0.00000000000000	
3.27165900000000	57.63562300000000	801.52645099999995	58.89828800000000	0.33701800000000	0.00000000000000	0.11728600000000	0.00000000000000	0.00000000000000	0.00000000000000	0.00000000000000	0.00000000000000	0.00000000000000	0.00000000000000	24.86007200000000	0.00000000000000	0.00000000000000	0.00000000000000	0.00000000000000	
3.27332600000000	56.99856800000000	802.72330199999999	58.96276300000000	0.33619200000000	0.00000000000000	0.11726000000000	0.00000000000000	0.00000000000000	0.00000000000000	0.00000000000000	0.00000000000000	0.00000000000000	0.00000000000000	24.94080600000000	0.00000000000000	0.00000000000000	0.00000000000000	0.00000000000000	
3.27499100000000	56.36190700000000	803.76669900000002	59.01398300000000	0.33537100000000	0.00000000000000	0.11723300000000	0.00000000000000	0.00000000000000	0.00000000000000	0.00000000000000	0.00000000000000	0.00000000000000	0.00000000000000	25.01417900000000	0.00000000000000	0.00000000000000	0.00000000000000	0.00000000000000	
3.27665300000000	55.72574400000000	804.65751399999999	59.05166600000000	0.33455600000000	0.00000000000000	0.11720500000000	0.00000000000000	0.00000000000000	0.00000000000000	0.00000000000000	0.00000000000000	0.00000000000000	0.00000000000000	25.07998300000000	0.00000000000000	0.00000000000000	0.00000000000000	0.00000000000000	
3.27832400000000	55.09014400000000	805.39679599999999	59.07552900000000	0.33374500000000	0.00000000000000	0.11717600000000	0.00000000000000	0.00000000000000	0.00000000000000	0.00000000000000	0.00000000000000	0.00000000000000	0.00000000000000	25.13801200000000	0.00000000000000	0.00000000000000	0.00000000000000	0.00000000000000	
3.27998800000000	54.45513300000000	805.98576700000001	59.08529100000000	0.33293600000000	0.00000000000000	0.11714600000000	0.00000000000000	0.00000000000000	0.00000000000000	0.00000000000000	0.00000000000000	0.00000000000000	0.00000000000000	25.18806100000000	0.00000000000000	0.00000000000000	0.00000000000000	0.00000000000000	
3.28166000000000	53.82070500000000	806.42583300000001	59.08067200000000	0.33212900000000	0.00000000000000	0.11711400000000	0.00000000000000	0.00000000000000	0.00000000000000	0.00000000000000	0.00000000000000	0.00000000000000	0.00000000000000	25.22993000000000	0.00000000000000	0.00000000000000	0.00000000000000	0.00000000000000	
3.28332300000000	53.18682600000000	806.71857799999998	59.06140600000000	0.33132100000000	0.00000000000000	0.11708200000000	0.00000000000000	0.00000000000000	0.00000000000000	0.00000000000000	0.00000000000000	0.00000000000000	0.00000000000000	25.26342400000000	0.00000000000000	0.00000000000000	0.00000000000000	0.00000000000000	
3.28498600000000	52.55343800000000	806.86577100000000	59.02723700000000	0.33051300000000	0.00000000000000	0.11704900000000	0.00000000000000	0.00000000000000	0.00000000000000	0.00000000000000	0.00000000000000	0.00000000000000	0.00000000000000	25.28835900000000	0.00000000000000	0.00000000000000	0.00000000000000	0.00000000000000	
